<svg width="323" height="319" viewBox="0 0 323 319" fill="none" xmlns="http://www.w3.org/2000/svg">
<path d="M229.86 12.6719C264.428 28.9701 292.055 57.0567 307.78 91.8894C323.506 126.722 326.3 166.019 315.661 202.727C305.022 239.434 281.647 271.147 249.732 292.172C217.818 313.197 179.453 322.157 141.527 317.444C103.601 312.731 68.5971 294.653 42.7992 266.457C17.0012 238.26 2.099 201.79 0.767976 163.596C-0.563051 125.401 11.7643 87.9827 35.5368 58.0583C59.3093 28.1339 92.9701 7.66338 130.476 0.321678L136.304 30.0967C105.881 36.052 78.5764 52.657 59.2929 76.9306C40.0094 101.204 30.01 131.557 31.0896 162.539C32.1693 193.521 44.2575 223.104 65.1839 245.976C86.1104 268.849 114.505 283.513 145.269 287.336C176.033 291.159 207.153 283.89 233.041 266.835C258.929 249.781 277.89 224.056 286.52 194.281C295.15 164.505 292.884 132.628 280.128 104.373C267.372 76.1182 244.962 53.3353 216.921 40.1148L229.86 12.6719Z" fill="#ABD2C7"/>
</svg>
