<svg width="20" height="20" viewBox="0 0 20 20" fill="none" xmlns="http://www.w3.org/2000/svg">
<path d="M20 10C20 4.47757 15.5224 0 10 0C4.47757 0 0 4.47757 0 10C0 14.9909 3.65631 19.1281 8.43763 19.8791V12.8913H5.8979V10H8.43763V7.79637C8.43763 5.2904 9.93109 3.90522 12.2149 3.90522C13.309 3.90522 14.4537 4.10069 14.4537 4.10069V6.56167H13.1922C11.9505 6.56167 11.5624 7.3323 11.5624 8.12403V10H14.3355L13.8926 12.8913H11.5624V19.8791C16.3437 19.1295 20 14.9923 20 10Z" fill="#1977F3"/>
<path d="M13.8926 12.8904L14.3356 9.99908H11.5624V8.12311C11.5624 7.33279 11.9491 6.56074 13.1923 6.56074H14.4537V4.09977C14.4537 4.09977 13.309 3.9043 12.2149 3.9043C9.93114 3.9043 8.43768 5.28807 8.43768 7.79545V9.99908H5.89795V12.8904H8.43768V19.8781C8.94675 19.9583 9.46847 19.9991 10 19.9991C10.5316 19.9991 11.0533 19.9569 11.5624 19.8781V12.8904H13.8926Z" fill="#FEFEFE"/>
</svg>
