<svg width="20" height="20" viewBox="0 0 20 20" fill="none" xmlns="http://www.w3.org/2000/svg">
<g clip-path="url(#clip0_1942_2888)">
<path d="M16.518 4.65695C16.518 3.99309 15.98 3.45703 15.3186 3.45703C14.6572 3.45703 14.1187 3.99309 14.1187 4.65695C14.1187 5.31837 14.6572 5.8544 15.3186 5.8544C15.98 5.8544 16.518 5.31837 16.518 4.65695Z" fill="url(#paint0_linear_1942_2888)"/>
<path d="M18.1161 14.0228C18.0717 14.9967 17.9088 15.5258 17.7736 15.8772C17.5919 16.3432 17.3753 16.6764 17.0239 17.0258C16.6764 17.3753 16.3432 17.5915 15.8772 17.7711C15.5258 17.9084 14.9947 18.0717 14.0209 18.1181C12.9681 18.1645 12.6561 18.1744 9.98629 18.1744C7.31895 18.1744 7.00449 18.1645 5.95169 18.1181C4.97787 18.0717 4.44921 17.9084 4.09775 17.7711C3.62935 17.5915 3.29866 17.3753 2.9492 17.0258C2.59726 16.6764 2.38059 16.3432 2.20142 15.8772C2.06615 15.5258 1.90082 14.9967 1.85884 14.0228C1.80753 12.97 1.79813 12.6531 1.79813 9.98874C1.79813 7.31893 1.80753 7.00451 1.85884 5.95166C1.90082 4.97784 2.06615 4.44923 2.20142 4.09481C2.38059 3.62935 2.59726 3.29814 2.9492 2.94868C3.29866 2.59974 3.62935 2.38303 4.09775 2.20142C4.44921 2.06371 4.97787 1.90278 5.95169 1.8564C7.00449 1.80998 7.31895 1.79813 9.98629 1.79813C12.6561 1.79813 12.9681 1.80998 14.0209 1.8564C14.9947 1.90278 15.5258 2.06371 15.8772 2.20142C16.3432 2.38303 16.6764 2.59974 17.0239 2.94868C17.3753 3.29814 17.5919 3.62935 17.7736 4.09481C17.9088 4.44923 18.0717 4.97784 18.1161 5.95166C18.165 7.00451 18.1769 7.31893 18.1769 9.98874C18.1769 12.6531 18.165 12.97 18.1161 14.0228ZM19.9143 5.86975C19.8655 4.80556 19.6976 4.07852 19.4484 3.44526C19.1947 2.78828 18.8546 2.23151 18.2978 1.67474C17.7435 1.12046 17.1867 0.780365 16.5298 0.52371C15.894 0.276904 15.1694 0.107097 14.1048 0.060712C13.0401 0.00936639 12.7 0 9.98629 0C7.27498 0 6.93247 0.00936639 5.86779 0.060712C4.80558 0.107097 4.08146 0.276904 3.44278 0.52371C2.78828 0.780365 2.23151 1.12046 1.67722 1.67474C1.12046 2.23151 0.780363 2.78828 0.524191 3.44526C0.277384 4.07852 0.109576 4.80556 0.0582311 5.86975C0.0118461 6.93443 0 7.27499 0 9.98874C0 12.7001 0.0118461 13.0401 0.0582311 14.1048C0.109576 15.167 0.277384 15.8935 0.524191 16.5298C0.780363 17.1843 1.12046 17.7435 1.67722 18.2978C2.23151 18.8521 2.78828 19.1947 3.44278 19.4508C4.08146 19.6976 4.80558 19.8654 5.86779 19.9143C6.93247 19.9632 7.27498 19.975 9.98629 19.975C12.7 19.975 13.0401 19.9632 14.1048 19.9143C15.1694 19.8654 15.894 19.6976 16.5298 19.4508C17.1867 19.1947 17.7435 18.8521 18.2978 18.2978C18.8546 17.7435 19.1947 17.1843 19.4484 16.5298C19.6976 15.8935 19.8655 15.167 19.9143 14.1048C19.9632 13.0401 19.975 12.7001 19.975 9.98874C19.975 7.27499 19.9632 6.93443 19.9143 5.86975Z" fill="url(#paint1_linear_1942_2888)"/>
<path d="M9.98627 13.3155C8.14863 13.3155 6.6575 11.8269 6.6575 9.98922C6.6575 8.14862 8.14863 6.65802 9.98627 6.65802C11.8244 6.65802 13.3175 8.14862 13.3175 9.98922C13.3175 11.8269 11.8244 13.3155 9.98627 13.3155ZM9.98627 4.85742C7.15357 4.85742 4.85938 7.15652 4.85938 9.98922C4.85938 12.8195 7.15357 15.1161 9.98627 15.1161C12.819 15.1161 15.1156 12.8195 15.1156 9.98922C15.1156 7.15652 12.819 4.85742 9.98627 4.85742Z" fill="url(#paint2_linear_1942_2888)"/>
</g>
<defs>
<linearGradient id="paint0_linear_1942_2888" x1="0.180235" y1="19.7689" x2="18.3114" y2="1.63784" gradientUnits="userSpaceOnUse">
<stop stop-color="#FFD521"/>
<stop offset="0.05" stop-color="#FFD521"/>
<stop offset="0.501119" stop-color="#F50000"/>
<stop offset="0.95" stop-color="#B900B4"/>
<stop offset="0.950079" stop-color="#B900B4"/>
<stop offset="1" stop-color="#B900B4"/>
</linearGradient>
<linearGradient id="paint1_linear_1942_2888" x1="0.180172" y1="19.7934" x2="18.3262" y2="1.64736" gradientUnits="userSpaceOnUse">
<stop stop-color="#FFD521"/>
<stop offset="0.05" stop-color="#FFD521"/>
<stop offset="0.501119" stop-color="#F50000"/>
<stop offset="0.95" stop-color="#B900B4"/>
<stop offset="0.950079" stop-color="#B900B4"/>
<stop offset="1" stop-color="#B900B4"/>
</linearGradient>
<linearGradient id="paint2_linear_1942_2888" x1="0.184867" y1="19.7944" x2="18.3265" y2="1.6527" gradientUnits="userSpaceOnUse">
<stop stop-color="#FFD521"/>
<stop offset="0.05" stop-color="#FFD521"/>
<stop offset="0.501119" stop-color="#F50000"/>
<stop offset="0.95" stop-color="#B900B4"/>
<stop offset="0.950079" stop-color="#B900B4"/>
<stop offset="1" stop-color="#B900B4"/>
</linearGradient>
<clipPath id="clip0_1942_2888">
<rect width="20" height="20" fill="white"/>
</clipPath>
</defs>
</svg>
