<svg width="41" height="41" viewBox="0 0 41 41" fill="none" xmlns="http://www.w3.org/2000/svg">
<rect x="0.929077" y="0.345703" width="40" height="40" fill="#CFEDFB"/>
<g clip-path="url(#clip0_1942_2951)">
<path d="M24.2624 16.2064C24.2624 14.6347 24.2624 13.8497 23.7741 13.3614C23.2858 12.873 22.5008 12.873 20.9291 12.873C19.3574 12.873 18.5724 12.873 18.0841 13.3614C17.5958 13.8497 17.5958 14.6347 17.5958 16.2064M12.5958 22.873C12.5958 19.7305 12.5958 18.1589 13.5724 17.183C14.5491 16.2072 16.1199 16.2064 19.2624 16.2064H22.5958C25.7383 16.2064 27.3099 16.2064 28.2858 17.183C29.2616 18.1597 29.2624 19.7305 29.2624 22.873C29.2624 26.0155 29.2624 27.5872 28.2858 28.563C27.3091 29.5389 25.7383 29.5397 22.5958 29.5397H19.2624C16.1199 29.5397 14.5483 29.5397 13.5724 28.563C12.5966 27.5864 12.5958 26.0155 12.5958 22.873Z" stroke="#14171C" stroke-width="1.5"/>
<path d="M20.9291 25.6499C21.85 25.6499 22.5958 25.0282 22.5958 24.2616C22.5958 23.4949 21.85 22.8724 20.9291 22.8724C20.0083 22.8724 19.2625 22.2507 19.2625 21.4832C19.2625 20.7166 20.0083 20.0949 20.9291 20.0949M20.9291 25.6499C20.0083 25.6499 19.2625 25.0282 19.2625 24.2616M20.9291 25.6499V26.2057M20.9291 20.0949V19.5391M20.9291 20.0949C21.85 20.0949 22.5958 20.7166 22.5958 21.4832" stroke="#14171C" stroke-width="1.5" stroke-linecap="round"/>
</g>
<defs>
<clipPath id="clip0_1942_2951">
<rect width="20" height="20" fill="white" transform="translate(10.9291 11.207)"/>
</clipPath>
</defs>
</svg>
