<svg width="50" height="51" viewBox="0 0 50 51" fill="none" xmlns="http://www.w3.org/2000/svg">
<rect y="0.566406" width="50" height="50" fill="#CFEDFB"/>
<path d="M26.4276 30.8848C26.4276 30.6776 26.3453 30.4789 26.1988 30.3323C26.0523 30.1858 25.8536 30.1035 25.6464 30.1035C25.4392 30.1035 25.2404 30.1858 25.0939 30.3323C24.9474 30.4789 24.8651 30.6776 24.8651 30.8848V32.9681C24.8651 33.1753 24.9474 33.374 25.0939 33.5205C25.2404 33.667 25.4392 33.7493 25.6464 33.7493C25.8536 33.7493 26.0523 33.667 26.1988 33.5205C26.3453 33.374 26.4276 33.1753 26.4276 32.9681V30.8848Z" fill="#075274"/>
<path d="M25.6464 16.041C24.3341 16.041 23.0756 16.5623 22.1477 17.4902C21.2197 18.4181 20.6984 19.6767 20.6984 20.9889V23.7973C19.4514 24.8179 18.5504 26.1991 18.119 27.7518C17.6876 29.3044 17.7469 30.9525 18.2887 32.4701C18.8306 33.9877 19.8285 35.3007 21.1457 36.229C22.4629 37.1574 24.0349 37.6557 25.6464 37.6557C27.2578 37.6557 28.8299 37.1574 30.1471 36.229C31.4642 35.3007 32.4621 33.9877 33.004 32.4701C33.5458 30.9525 33.6051 29.3044 33.1737 27.7518C32.7423 26.1991 31.8414 24.8179 30.5943 23.7973V20.9889C30.5943 19.6767 30.073 18.4181 29.1451 17.4902C28.2172 16.5623 26.9586 16.041 25.6464 16.041ZM25.6464 22.0306C24.4744 22.03 23.3174 22.2931 22.2609 22.8004V20.9889C22.2609 20.0911 22.6176 19.23 23.2525 18.5951C23.8874 17.9602 24.7485 17.6035 25.6464 17.6035C26.5442 17.6035 27.4053 17.9602 28.0402 18.5951C28.6751 19.23 29.0318 20.0911 29.0318 20.9889V22.8004C27.9753 22.2931 26.8183 22.03 25.6464 22.0306ZM25.6464 23.5931C27.304 23.5931 28.8937 24.2516 30.0658 25.4237C31.2379 26.5958 31.8964 28.1855 31.8964 29.8431C31.8964 31.5007 31.2379 33.0904 30.0658 34.2625C28.8937 35.4346 27.304 36.0931 25.6464 36.0931C23.9888 36.0931 22.399 35.4346 21.2269 34.2625C20.0548 33.0904 19.3964 31.5007 19.3964 29.8431C19.3964 28.1855 20.0548 26.5958 21.2269 25.4237C22.399 24.2516 23.9888 23.5931 25.6464 23.5931Z" fill="#075274"/>
</svg>
