<svg width="40" height="41" viewBox="0 0 40 41" fill="none" xmlns="http://www.w3.org/2000/svg">
<rect x="0.00683594" y="0.802734" width="40" height="40" fill="#CFEDFB"/>
<path d="M24.8306 23.7031C24.8306 25.0831 21.9206 26.2031 18.3306 26.2031C14.7406 26.2031 11.8306 25.0831 11.8306 23.7031M24.8306 23.7031V25.2301C24.092 25.3124 23.3854 25.5764 22.7737 25.9983C22.1621 26.4203 21.6644 26.9872 21.3252 27.6483C20.986 28.3095 20.8158 29.0444 20.8299 29.7873C20.8439 30.5303 21.0417 31.2582 21.4056 31.9061C20.4906 32.0961 19.4436 32.2031 18.3306 32.2031C14.7406 32.2031 11.8306 31.0831 11.8306 29.7031V23.7031M24.8306 23.7031V18.7031M11.8306 23.7031V18.7031M24.8306 17.7031C24.8306 19.0831 21.9206 20.2031 18.3306 20.2031C14.7406 20.2031 11.8306 19.0831 11.8306 17.7031C11.8306 16.3231 14.7406 15.2031 18.3306 15.2031C21.9206 15.2031 24.8306 16.3231 24.8306 17.7031Z" stroke="#14171C" stroke-width="2" stroke-linecap="square"/>
<path d="M21.4056 31.9052C21.9899 32.9461 22.9637 33.7124 24.1129 34.0353C25.2622 34.3583 26.4926 34.2114 27.5336 33.6272C28.5746 33.0429 29.3408 32.069 29.6637 30.9198C29.9867 29.7706 29.8399 28.5401 29.2556 27.4992C28.6713 26.4582 27.6974 25.692 26.5482 25.369C25.399 25.0461 24.1686 25.1929 23.1276 25.7772C22.0866 26.3614 21.3204 27.3353 20.9974 28.4845C20.6745 29.6337 20.8213 30.8642 21.4056 31.9052Z" stroke="#14171C" stroke-width="2" stroke-linecap="square"/>
</svg>
