<svg width="50" height="51" viewBox="0 0 50 51" fill="none" xmlns="http://www.w3.org/2000/svg">
<rect y="0.0234375" width="50" height="50" fill="#CFEDFB"/>
<path d="M29.1667 19.8503C29.1667 17.8857 29.1667 16.9044 28.5563 16.294C27.9459 15.6836 26.9646 15.6836 25 15.6836C23.0355 15.6836 22.0542 15.6836 21.4438 16.294C20.8334 16.9044 20.8334 17.8857 20.8334 19.8503M14.5834 28.1836C14.5834 24.2555 14.5834 22.2909 15.8042 21.0711C17.025 19.8513 18.9886 19.8503 22.9167 19.8503H27.0834C31.0115 19.8503 32.9761 19.8503 34.1959 21.0711C35.4157 22.2919 35.4167 24.2555 35.4167 28.1836C35.4167 32.1117 35.4167 34.0763 34.1959 35.2961C32.975 36.5159 31.0115 36.5169 27.0834 36.5169H22.9167C18.9886 36.5169 17.024 36.5169 15.8042 35.2961C14.5844 34.0753 14.5834 32.1117 14.5834 28.1836Z" stroke="#075274" stroke-width="1.5"/>
<path d="M25.0001 31.6561C26.1511 31.6561 27.0834 30.879 27.0834 29.9207C27.0834 28.9624 26.1511 28.1842 25.0001 28.1842C23.849 28.1842 22.9167 27.4072 22.9167 26.4478C22.9167 25.4895 23.849 24.7124 25.0001 24.7124M25.0001 31.6561C23.849 31.6561 22.9167 30.879 22.9167 29.9207M25.0001 31.6561V32.3509M25.0001 24.7124V24.0176M25.0001 24.7124C26.1511 24.7124 27.0834 25.4895 27.0834 26.4478" stroke="#075274" stroke-width="1.5" stroke-linecap="round"/>
</svg>
