<svg width="50" height="51" viewBox="0 0 50 51" fill="none" xmlns="http://www.w3.org/2000/svg">
<rect y="0.205078" width="50" height="50" fill="#CFEDFB"/>
<path d="M29.3584 16.3066H20.6417C19.6021 16.3066 18.7584 17.1743 18.7584 18.2441V33.64C18.7584 34.7098 19.6021 35.5775 20.6417 35.5775H29.3584C30.3979 35.5775 31.2417 34.7098 31.2417 33.64V18.2441C31.2417 17.1743 30.3979 16.3066 29.3584 16.3066Z" stroke="#075274" stroke-width="1.5" stroke-linecap="round" stroke-linejoin="round"/>
<path d="M22.9198 18.9336H27.0802M25 32.9971C25.0738 33.0017 25.1478 32.9911 25.2174 32.966C25.2869 32.9409 25.3506 32.9019 25.4045 32.8512C25.4584 32.8006 25.5014 32.7394 25.5307 32.6715C25.5601 32.6036 25.5753 32.5305 25.5753 32.4565C25.5753 32.3825 25.5601 32.3094 25.5307 32.2415C25.5014 32.1736 25.4584 32.1125 25.4045 32.0618C25.3506 32.0112 25.2869 31.9721 25.2174 31.947C25.1478 31.9219 25.0738 31.9113 25 31.9159C24.8624 31.9244 24.7333 31.9851 24.6389 32.0856C24.5445 32.186 24.4919 32.3187 24.4919 32.4565C24.4919 32.5944 24.5445 32.727 24.6389 32.8275C24.7333 32.9279 24.8624 32.9886 25 32.9971Z" stroke="#075274" stroke-width="1.5" stroke-linecap="round" stroke-linejoin="round"/>
</svg>
