<svg width="51" height="51" viewBox="0 0 51 51" fill="none" xmlns="http://www.w3.org/2000/svg">
<rect y="0.330078" width="50.6699" height="50.6699" fill="#CFEDFB"/>
<path d="M31.3409 26.5386H16.6261C16.4161 26.5386 16.2147 26.622 16.0662 26.7705C15.9178 26.9189 15.8344 27.1203 15.8344 27.3303C15.8344 27.5403 15.9178 27.7416 16.0662 27.8901C16.2147 28.0386 16.4161 28.122 16.6261 28.122H31.3409L25.5661 33.8952C25.4175 34.0439 25.334 34.2455 25.334 34.4557C25.334 34.666 25.4175 34.8676 25.5661 35.0163C25.7148 35.1649 25.9164 35.2485 26.1267 35.2485C26.3369 35.2485 26.5386 35.1649 26.6872 35.0163L33.8127 27.8908C33.8864 27.8173 33.9449 27.7299 33.9848 27.6337C34.0247 27.5375 34.0453 27.4344 34.0453 27.3303C34.0453 27.2261 34.0247 27.123 33.9848 27.0268C33.9449 26.9307 33.8864 26.8433 33.8127 26.7697L26.6872 19.6443C26.5386 19.4956 26.3369 19.4121 26.1267 19.4121C25.9164 19.4121 25.7148 19.4956 25.5661 19.6443C25.4175 19.793 25.334 19.9946 25.334 20.2048C25.334 20.4151 25.4175 20.6167 25.5661 20.7654L31.3409 26.5386Z" fill="#075274"/>
</svg>
