<svg width="41" height="41" viewBox="0 0 41 41" fill="none" xmlns="http://www.w3.org/2000/svg">
<rect x="0.258789" y="0.474609" width="40" height="40" fill="#CFEDFB"/>
<g clip-path="url(#clip0_1942_2927)">
<path d="M14.8172 29.5698H19.3004L19.6564 27.9698H21.6612L22.0172 29.5698H26.5004L27.006 27.2954C29.926 24.8466 30.758 20.5834 28.7868 17.169C28.6054 16.857 28.4081 16.5615 28.1948 16.2826C28.2374 16.0501 28.2588 15.8125 28.2588 15.5698C28.2586 14.7295 27.9939 13.9106 27.5021 13.2293C27.0103 12.5479 26.3165 12.0388 25.519 11.774C24.7215 11.5093 23.8609 11.5024 23.0593 11.7544C22.2577 12.0064 21.5558 12.5044 21.0532 13.1778C19.978 13.245 18.8932 13.4994 17.8492 13.941L17.1132 14.253L17.7356 15.7258L18.4724 15.4138C19.0653 15.1621 19.6854 14.9801 20.3204 14.8714C20.2793 15.0986 20.2588 15.3314 20.2588 15.5698C20.2587 16.4047 20.52 17.2187 21.0058 17.8977C21.4917 18.5766 22.1779 19.0866 22.9681 19.3559C23.7584 19.6253 24.6131 19.6407 25.4126 19.3999C26.212 19.159 26.916 18.6741 27.426 18.013C28.1836 19.3489 28.4357 20.9127 28.136 22.4189C27.8364 23.9252 27.0052 25.2735 25.794 26.2178L25.5676 26.3946L25.2172 27.9706H23.3004L22.9452 26.3706H18.3724L18.0172 27.9706H16.1004L15.5652 25.5626L15.1644 25.409C14.3132 25.0826 13.114 24.393 12.2588 23.625V19.9698H13.1116L14.7492 17.2418L14.2148 15.905C14.8596 15.9882 15.6028 16.3058 16.2956 17.0682L16.834 17.6602L18.018 16.5834L17.4796 15.9914C15.9652 14.3258 14.1436 14.0954 12.878 14.3906L11.97 14.6018L12.9684 17.0978L12.206 18.3698H10.6588V24.3026L10.8948 24.537C11.8148 25.4522 13.1308 26.265 14.1868 26.7346L14.8172 29.5698ZM15.0588 20.7698H16.662V19.165H15.0588V20.7698ZM24.2588 17.9698C23.6222 17.9698 23.0118 17.7169 22.5617 17.2669C22.1116 16.8168 21.8588 16.2063 21.8588 15.5698C21.8588 14.9333 22.1116 14.3228 22.5617 13.8727C23.0118 13.4227 23.6222 13.1698 24.2588 13.1698C24.8953 13.1698 25.5057 13.4227 25.9558 13.8727C26.4059 14.3228 26.6588 14.9333 26.6588 15.5698C26.6588 16.2063 26.4059 16.8168 25.9558 17.2669C25.5057 17.7169 24.8953 17.9698 24.2588 17.9698Z" fill="#14171C"/>
</g>
<defs>
<clipPath id="clip0_1942_2927">
<rect width="19.2" height="19.2" fill="white" transform="translate(10.6588 11.5703)"/>
</clipPath>
</defs>
</svg>
