<svg width="40" height="41" viewBox="0 0 40 41" fill="none" xmlns="http://www.w3.org/2000/svg">
<rect y="0.199219" width="40" height="40" fill="#CFEDFB"/>
<path d="M20 28.7994C23.6172 27.5526 26.1952 24.6542 26.6 20.9638C26.712 19.3618 26.7024 17.7538 26.5712 16.153C26.5539 15.9007 26.4433 15.664 26.2608 15.489C26.0783 15.3139 25.8371 15.2133 25.5844 15.2066C23.948 15.1562 22.046 14.8834 20.5764 13.4358C20.4229 13.2842 20.2159 13.1992 20.0002 13.1992C19.7845 13.1992 19.5774 13.2842 19.424 13.4358C17.954 14.8834 16.052 15.1562 14.416 15.2066C14.1631 15.2132 13.9219 15.3138 13.7393 15.4888C13.5567 15.6638 13.446 15.9007 13.4288 16.153C13.2975 17.7536 13.2879 19.3618 13.4 20.9638C13.804 24.6542 16.3828 27.5526 20 28.7994Z" stroke="#14171C" stroke-width="0.5" stroke-linecap="round" stroke-linejoin="round"/>
<path d="M19.9999 21.2009C20.9496 21.2009 21.7195 20.431 21.7195 19.4813C21.7195 18.5316 20.9496 17.7617 19.9999 17.7617C19.0502 17.7617 18.2803 18.5316 18.2803 19.4813C18.2803 20.431 19.0502 21.2009 19.9999 21.2009Z" stroke="#14171C" stroke-width="0.5" stroke-linecap="round" stroke-linejoin="round"/>
<path d="M23.0356 24.2348C23.0356 23.4297 22.7157 22.6576 22.1464 22.0883C21.5772 21.519 20.805 21.1992 20 21.1992C19.1949 21.1992 18.4227 21.519 17.8535 22.0883C17.2842 22.6576 16.9644 23.4297 16.9644 24.2348" stroke="#14171C" stroke-width="0.5" stroke-linecap="round" stroke-linejoin="round"/>
</svg>
