<svg width="40" height="41" viewBox="0 0 40 41" fill="none" xmlns="http://www.w3.org/2000/svg">
<rect x="0.000244141" y="0.376953" width="40" height="40" fill="#CFEDFB"/>
<g clip-path="url(#clip0_1942_2908)">
<path d="M20.0003 12.377C20.3683 12.3776 20.7316 12.4023 21.0903 12.451C21.4273 12.498 21.5893 12.875 21.4143 13.167L21.4003 13.191C21.3472 13.2775 21.27 13.3466 21.1782 13.3898C21.0863 13.433 20.9838 13.4483 20.8833 13.434C19.8976 13.3082 18.8964 13.394 17.9465 13.6854C16.9965 13.9769 16.1195 14.4674 15.374 15.1243C14.6284 15.7813 14.0314 16.5895 13.6226 17.4952C13.2138 18.4009 13.0027 19.3833 13.0033 20.377C13.0033 24.247 16.1333 27.377 20.0033 27.377C20.9971 27.3777 21.9796 27.1667 22.8854 26.758C23.7912 26.3493 24.5996 25.7522 25.2566 25.0066C25.9136 24.2611 26.4042 23.3841 26.6957 22.434C26.9873 21.484 27.073 20.4827 26.9473 19.497C26.9329 19.3965 26.9483 19.294 26.9914 19.2021C27.0346 19.1102 27.1037 19.033 27.1903 18.98L27.2123 18.966C27.5043 18.791 27.8823 18.953 27.9283 19.29C27.9783 19.6446 28.0033 20.008 28.0033 20.38C28.0033 24.8 24.4233 28.38 20.0033 28.38C15.5833 28.38 12.0033 24.8 12.0033 20.38C12.0033 15.96 15.5833 12.38 20.0033 12.38L20.0003 12.377Z" fill="#14171C"/>
<path d="M20.0002 16.377C20.1772 16.377 20.2532 16.588 20.1282 16.713L19.5362 17.305C19.4489 17.3886 19.3414 17.4482 19.2242 17.478C18.5866 17.6496 18.0235 18.0269 17.6221 18.5512C17.2207 19.0755 17.0035 19.7176 17.0042 20.378C17.0042 22.038 18.3442 23.378 20.0042 23.378C21.3942 23.378 22.5642 22.434 22.9042 21.158C22.934 21.0408 22.9936 20.9333 23.0772 20.846L23.6692 20.254C23.7952 20.128 24.0062 20.204 24.0062 20.382C24.0062 22.592 22.2162 24.382 20.0062 24.382C17.7962 24.382 16.0062 22.592 16.0062 20.382C16.0062 18.172 17.7962 16.382 20.0062 16.382L20.0002 16.377Z" fill="#14171C"/>
<path d="M24.6003 12.3844C24.6998 12.4016 24.7917 12.4486 24.864 12.5191C24.9363 12.5896 24.9855 12.6804 25.0053 12.7794L25.4403 14.9494L27.6103 15.3844C27.7092 15.4042 27.7998 15.4535 27.8702 15.5258C27.9406 15.5981 27.9875 15.69 28.0047 15.7894C28.0219 15.8888 28.0086 15.9911 27.9666 16.0829C27.9246 16.1746 27.8558 16.2515 27.7693 16.3034L25.2693 17.8034C25.1916 17.8499 25.1028 17.8744 25.0123 17.8744H23.2223L20.8723 20.2244C20.778 20.3155 20.6517 20.3659 20.5206 20.3647C20.3895 20.3636 20.2641 20.311 20.1713 20.2183C20.0786 20.1256 20.0261 20.0002 20.0249 19.8691C20.0238 19.738 20.0742 19.6117 20.1653 19.5174L22.5153 17.1674V15.3774L22.5203 15.3104C22.5292 15.2432 22.5516 15.1786 22.5863 15.1204L24.0863 12.6204L24.1303 12.5584C24.1866 12.491 24.2597 12.4396 24.3422 12.4094C24.4247 12.3792 24.5137 12.3712 24.6003 12.3864V12.3844Z" fill="#14171C"/>
</g>
<defs>
<clipPath id="clip0_1942_2908">
<rect width="16" height="16" fill="white" transform="translate(12.0002 12.377)"/>
</clipPath>
</defs>
</svg>
